<svg xmlns="http://www.w3.org/2000/svg" xml:space="preserve" viewBox="0 0 1055 862"><g fill="#8f1f1d"><path d="M128 570c2 3 5 6 9 6l43 7 4 9-18 33c-2 4-1 8 1 11s6 5 11 5h42l7 7-10 37c-1 3 0 7 3 10s7 4 11 3l42-8 8 6-2 38c0 4 2 7 6 10 3 2 8 2 12 1l39-15 9 4 6 38c1 3 4 7 8 8 4 2 8 1 12-1l35-21 10 3 15 35c1 4 5 7 9 7 4 1 8 0 11-3l30-27 11 1 22 33c2 3 6 5 10 5 5 0 9-2 11-5l23-31 11-1 28 28c3 3 8 4 12 4 4-1 8-4 9-7l16-35 10-3 35 23c3 2 8 3 12 1 4-1 7-4 7-8l8-37 10-4 38 16c4 2 9 2 12 0 4-2 6-6 6-10l-1-37 9-6 41 9c4 1 9 0 12-2 3-3 4-7 3-11l-9-36 7-8 43 3c4 0 8-2 11-5 2-3 3-7 1-11l-17-34 5-8 42-6c5 0 8-3 10-6 2-4 1-8-1-11l-25-31c1 0-2-32-21-58h-1c-44-63-182-110-347-114-174-3-321 45-358 111a84 84 0 0 0-21 47l-25 30c-3 3-4 7-2 11z"/><path d="M988 435c-2-4-20-3-24-4h-66l-5-11 42-66c2-5 13-12 10-16-2-5-18 1-23 2l-68 12-7-11 38-84c1-6 13-27 10-31-3-3-19 9-23 11l-74 46-8-8 21-73c0-6 11-31 7-34s-16 8-21 11l-65 50-10-6 16-87c-1-5 6-33 1-35-4-2-26 22-29 25l-51 66-11-4-5-99c-2-5-1-23-6-24-4-1-10 15-13 19l-44 88-11-1-22-101c-3-5-5-20-10-20-4 0-8 18-10 23l-27 98-11 1-39-89c-3-4-8-23-13-22-4 1-3 15-5 20l-11 107-11 4-35-45c-4-3-24-34-28-32-5 2-2 34-2 40l1 68-10 6-64-59c-4-2-12-12-16-9s-1 17-1 22l24 92-9 8-70-43c-4-1-18-12-21-8s4 8 5 13l37 96-7 11-114-39c-4 0-17-6-19-2-3 5 8 11 10 16l85 93-6 11-82-9c-5 0-16-2-18 3s9 11 12 16l62 66a203 203 0 0 0 24 82c47 87 193 150 364 150 182 0 334-71 372-166 17-24 21-64 21-66l50-54c2-4 15-13 13-18z"/><path d="M177 508 61 526c-21 5-7 9 0 10 25 4 147 7 150 8 2 0-34-36-34-36zm701 7s95 13 116 18 7 8 0 9c-25 4-147 7-149 8l33-35z"/></g><path d="M402 515s-41-45-82 0c0 0-33 60 0 90 0 0 53 42 82 0 0 0 35-33 0-90z"/><path fill="#fff" d="M354 532c0 17 11 31 23 31 13 0 24-14 24-31 0-18-11-32-24-32-12 0-23 14-23 32z"/><path d="M632 498s-70-31-90 39c0 0-20 81 58 86 0 0 100-19 32-125z"/><path fill="#fff" d="M597 529c0 18 10 32 24 32 13 0 23-14 23-32s-10-33-23-33c-14 0-24 15-24 33z"/></svg>