<svg xmlns="http://www.w3.org/2000/svg" viewBox="0 0 600 400" width="600" height="400"><path fill="#a52b00" d="M327 173c-57 0-109 7-148 18v-3c-39 13-64 30-64 50l2 9-4 7s-3 4 2 13a1191 1191 0 0 0 54 67c0-1-4-16-15-34l-16-31c11 7 25 13 41 18 39 11 91 18 148 18 66 0 124-9 164-23v-86c-40-14-98-23-164-23m223 79-7-14v-1c0-16-16-31-44-42v84c13-6 24-12 31-18-2 9-10 26-16 39-9 18-13 34-13 34a1239 1239 0 0 0 46-69c6-9 3-13 3-13"/><path fill="#f74c00" d="m589 252-44-32-1-5 14-21c2-2 2-5 1-7s-3-4-6-5l-24-4-3-6 10-23v-7c-2-3-4-4-7-4l-25 1-4-5 6-25c1-3 0-5-2-7s-4-3-7-2l-24 6-5-4 1-26c0-3-1-6-3-7s-5-2-7-1l-23 11-5-3-4-26c-1-2-2-4-5-5-2-1-5-1-7 1l-20 15-6-2-8-24c-1-3-3-5-6-5-2-1-5 0-7 2l-17 19-6-1-13-22c-1-2-4-3-6-3-3 0-5 1-6 3l-13 22-7 1-16-19a7 7 0 0 0-13 3l-8 24-6 2-20-15c-3-2-5-2-8-1-2 1-4 3-4 5l-4 26-5 3-23-11c-2-1-5 0-7 1s-3 4-3 7l1 26-5 4-24-6c-3-1-6 0-7 2-2 2-3 4-2 7l5 25-3 5-25-1c-3 0-5 1-7 4v7l10 23-3 6-24 4c-3 1-5 3-6 5s-1 5 1 7l14 21v1l-41 44s-6 5 3 17a1639 1639 0 0 0 87 88c2-1-4-20-22-43-14-21-32-53-28-56 0 0 5-6 14-11 1 0 0 0 0 0s206 95 397 2c22-4 35 8 35 8 4 2-7 35-17 56a98 98 0 0 0-14 45l12-19c17-23 49-68 55-79 7-12 0-16 0-16"/><path d="m398 312 1-1-67-6c55-73 99-14 103-8v15z"/><path fill="#f74c00" d="M139 232s-55-21-65-44c0 0 65-52-13-107l-2 70s-23-23-22-62c0 0-72 35 12 96 0 0 3 33 79 73z"/><path d="M365 203s21-23 41 0c0 0 16 30 0 45 0 0-26 21-41 0 0 0-18-17 0-45"/><path fill="#fff" d="M389 211c0 9-5 16-12 16-6 0-11-7-11-16s5-16 11-16c7 0 12 7 12 16"/><path d="M273 197s35-16 45 19c0 0 10 40-29 43 0 0-50-10-16-62"/><path fill="#fff" d="M291 211c0 9-5 16-12 16s-12-7-12-16 5-17 12-17 12 8 12 17"/><path fill="#f74c00" d="M501 241s-7 29-53 60l-13 3s-41-76-100 10c0 0 18-11 67 2 0 0-22 35-68 34 0 0 44 52 110-24 0 0 70-27 76-85z"/></svg>
