<svg xmlns="http://www.w3.org/2000/svg" viewBox="0 0 600 400" width="600" height="400"><path fill="#a52b00" d="M299 179c-61 0-116 7-157 19v101c41 12 96 20 157 20 69 0 131-10 173-25v-91c-42-15-104-24-173-24m235 82-7-15v-1c0-17-17-32-46-45v89c13-6 24-12 32-19-2 9-10 28-16 42-11 19-14 35-14 36l9-14 40-59c5-9 2-14 2-14M75 246l1 9-4 8s-3 4 3 14a1259 1259 0 0 0 56 70c1-1-4-17-16-35l-16-33c11 7 26 13 43 19V194c-42 13-67 31-67 52"/><path fill="#f74c00" d="m576 261-47-34-1-5 15-22c2-2 2-5 1-8-1-2-3-4-6-5l-26-4-3-6 11-25c1-3 1-6-1-8-1-2-4-4-7-4l-26 1-4-5 6-27c1-2 0-5-2-7s-5-3-7-2l-26 6-5-4 1-28c0-3-1-5-3-7-3-1-5-2-8 0l-24 11-6-3-4-27c0-3-2-5-5-6-2-2-5-1-7 0l-21 16-7-2-9-25c-1-3-3-5-6-5-2-1-5 0-7 2l-18 20h-6l-14-24c-1-2-4-4-7-4-2 0-5 2-6 4l-14 24h-7l-17-20a8 8 0 0 0-13 3l-10 25-6 2-21-16c-2-1-5-2-8 0-2 1-4 3-4 6l-5 27-5 3-24-11c-3-2-6-1-8 0-2 2-3 4-3 7l1 28-5 4-26-6c-3-1-5 0-7 2s-3 5-2 7l6 27-4 5-27-1c-2 0-5 2-6 4-2 2-2 5-1 8l11 25-3 6-26 4c-3 1-5 3-6 5-1 3-1 6 1 8l15 22v1l-44 46s-6 6 4 18a1732 1732 0 0 0 92 94c1-1-4-22-24-46-15-22-34-56-29-60 0 0 5-6 15-11 0 1 0 0 0 0s218 101 420 2c23-4 37 8 37 8 4 3-8 37-18 60-14 26-16 46-15 47s6-7 13-19l58-84c7-13 0-17 0-17"/><path d="m225 325-1-1 71-5c-58-77-105-16-110-9v15zm149 0 1-1-69-5c59-80 102-17 107-10v16z"/><path fill="#f74c00" d="M483 249s-8 31-56 63l-14 3s-44-80-106 10c0 0 19-11 71 3 0 0-23 37-72 35 0 0 47 56 117-24 0 0 74-29 80-90z"/><path d="M339 209s21-24 43 0c0 0 17 32 0 47 0 0-28 23-43 0 0 0-19-17 0-47"/><path fill="#fff" d="M364 218c0 9-6 16-12 16-7 0-13-7-13-16 0-10 6-17 13-17 6 0 12 7 12 17"/><path d="M242 202s37-16 47 21c0 0 11 43-31 45 0 0-52-10-16-66"/><path fill="#fff" d="M260 217c0 10-5 18-12 18s-13-8-13-18c0-9 6-17 13-17s12 8 12 17"/><path fill="#f74c00" d="M221 331c46-6 72-6 72-6-61-81-111-8-111-8-13-4-25-22-35-38l-38-11c44 75 77 76 77 76 68 87 100 17 100 17-38-4-65-30-65-30"/></svg>
