<svg xmlns="http://www.w3.org/2000/svg" viewBox="0 0 600 400" width="600" height="400"><path fill="#a52b00" d="m505 250-6-13v-1c0-15-15-28-40-38v9l-7-3v-4c-36-13-89-21-147-21-52 0-99 6-133 16v14-17c-36 11-58 27-58 44l2 9-4 6s-3 4 2 12a1069 1069 0 0 0 48 60c1-1-3-15-13-30l-14-28c9 6 65 34 179 34 116-1 167-37 173-42-2 8-9 24-14 35-9 17-12 31-12 31l8-11c10-15 30-43 34-51s2-11 2-11"/><path fill="#f74c00" d="m540 250-40-30-1-4 13-18c1-2 2-5 1-7s-3-4-5-4l-22-4-3-5 9-21v-7c-1-2-4-3-6-3l-22 1-4-5 5-22c1-3 0-5-1-7l-7-2-21 6-5-4 1-23c0-3-1-5-3-6s-4-2-6-1l-20 10-5-3-4-23c0-2-2-4-4-5s-4-1-6 1l-18 13-6-1-8-22c0-2-2-4-4-4-3-1-5 0-6 2l-16 17-5-1-12-20c-1-2-3-3-6-3-2 0-4 1-5 3l-12 20-5 1-16-17a6 6 0 0 0-11 2l-7 22-6 1-18-13c-2-2-4-2-6-1s-4 3-4 5l-4 23-5 3-20-10c-2-1-5 0-6 1-2 1-3 3-3 6v23l-4 4-22-6-6 2c-1 2-2 4-1 7l5 22-4 5-22-1c-3 0-5 1-6 3v7l9 21-3 5-22 4c-2 0-4 2-5 4s0 5 1 7l13 18v1l-37 40s-6 4 2 14a1471 1471 0 0 0 79 80c1-1-4-18-20-39-13-18-29-47-25-50 0 0 4-6 13-10 0 0-1 0 0 0 0 0 185 85 356 2 20-4 31 7 31 7 4 2-6 31-15 51-12 22-13 39-12 40l11-17 49-71c6-11 0-14 0-14"/><path fill="#f74c00" d="M459 239s27-2 61-37l5-11s-54-54 30-91c0 0-7 12-5 58 0 0 26-8 33-50 0 0 37 49-40 95 0 0-36 58-88 53z"/><path d="M338 205s19-20 37 0c0 0 15 27 0 41 0 0-23 18-37 0 0 0-15-15 0-41"/><path fill="#fff" d="M360 213c0 7-5 14-10 14-6 0-11-7-11-14 0-8 5-15 11-15 5 0 10 7 10 15"/><path d="M256 200s32-14 40 17c0 0 9 36-26 38 0 0-44-8-14-55"/><path fill="#fff" d="M272 213c0 8-5 15-11 15s-10-7-10-15 4-15 10-15 11 7 11 15"/><path d="m297 268 40-3s-1 6-7 11c0 0-13 16-29-1 0 0-3-3-4-7"/><path fill="#f74c00" d="M135 231h-1c-13-3-50-13-60-28 0 0 50-57-28-93l9 63s-24-16-29-51c0 0-58 42 26 83 0 0 8 28 81 51a12 12 0 0 0 14-13c0-7-5-12-12-12"/></svg>
